<svg xmlns="http://www.w3.org/2000/svg" viewBox="0 0 800 600">
  <rect width="100%" height="100%" fill="#e9f7ef"/>
  <g transform="translate(60,50)">
    <ellipse cx="260" cy="360" rx="220" ry="140" fill="#dff3e8"/>
    <g transform="translate(120,40)">
      <path d="M70 200 C 40 120, 0 100, 20 60 C 40 20, 110 10, 140 40 C170 70, 160 120, 130 160 C110 190, 90 200, 70 200 Z" fill="#7ccfa4"/>
      <path d="M180 220 C 150 120, 100 100, 140 60 C 180 20, 260 10, 300 50 C340 90, 320 150, 290 190 C260 220, 220 230, 180 220 Z" fill="#4fbf86"/>
    </g>
    <g transform="translate(430,120)">
      <rect x="0" y="0" width="180" height="120" rx="12" fill="#fff"/>
      <text x="24" y="30" font-size="18" fill="#0b6b3a" font-family="sans-serif">Learn</text>
      <text x="24" y="56" font-size="14" fill="#2a8f5f">Grow</text>
      <text x="24" y="82" font-size="12" fill="#5bbf86">Succeed</text>
    </g>
  </g>
</svg>